<?xml version="1.0" standalone="no"?>
<!DOCTYPE svg PUBLIC "-//W3C//DTD SVG 20010904//EN"
 "http://www.w3.org/TR/2001/REC-SVG-20010904/DTD/svg10.dtd">
<svg version="1.0" xmlns="http://www.w3.org/2000/svg"
 width="700.000000pt" height="700.000000pt" viewBox="0 0 700.000000 700.000000"
 preserveAspectRatio="xMidYMid meet">
<metadata>
Created by potrace 1.14, written by Peter Selinger 2001-2017
</metadata>
<g transform="translate(0.000000,700.000000) scale(0.100000,-0.100000)"
fill="#000000" stroke="none">
<path d="M2880 5998 l0 -1003 -708 708 -707 707 -438 -437 -437 -438 707 -707
708 -708 -1003 0 -1002 0 0 -620 0 -620 1002 0 1003 0 -708 -708 -707 -707
437 -438 438 -437 707 707 708 708 0 -1003 0 -1002 620 0 620 0 0 1002 0 1003
708 -708 707 -707 438 437 437 438 -707 707 -708 708 1003 0 1002 0 0 620 0
620 -1002 0 -1003 0 708 708 707 707 -437 438 -438 437 -707 -707 -708 -708 0
1003 0 1002 -620 0 -620 0 0 -1002z"/>
</g>
</svg>
