<svg width="100%" viewBox="0 0 304 22" fill="none" xmlns="http://www.w3.org/2000/svg">
<path d="M0.343303 10.8082C0.255695 17.3497 4.60691 21.4964 9.77579 21.438C11.7032 21.438 13.1633 20.9708 14.1854 20.0071C15.2075 19.0434 15.9376 17.9629 16.434 16.7364H18.0402C17.2517 18.1381 16.7845 19.7443 16.7845 21H20.2888V10.6622H9.71739V13.9329H16.4924C16.2588 16.0355 14.3314 18.1965 10.7687 18.1965C7.08914 18.1965 4.31488 15.4515 4.31488 10.8082C4.31488 6.165 7.23515 3.39074 10.8855 3.39074C13.9518 3.39074 15.7624 5.0261 16.6968 7.71275L20.3764 6.31102C19.2375 2.9235 16.1712 0.120034 10.9147 0.120034C5.10335 0.00322288 0.226492 4.82168 0.343303 10.8082Z" fill="black"/>
<path d="M24.7002 21H39.7104V17.7585H28.4966V12.064H36.907V8.85166H28.4966V3.82878H39.7104V0.558075H24.7002V21Z" fill="black"/>
<path d="M41.2949 10.8082C41.2949 17.0284 45.5585 21.438 51.9539 21.438C58.3785 21.438 62.5545 17.0284 62.5545 10.8082C62.6421 4.70487 58.2325 0.0324253 51.9539 0.120034C45.6753 0.0324253 41.2073 4.70487 41.2949 10.8082ZM58.5829 10.8082C58.5829 15.0426 56.0715 18.1965 51.9539 18.1965C47.8363 18.1965 45.2957 15.0426 45.2957 10.8082C45.2957 6.45703 47.8363 3.36154 51.9539 3.36154C56.0715 3.36154 58.5829 6.45703 58.5829 10.8082Z" fill="black"/>
<path d="M66.5651 21H70.3615V12.9692H74.2746C76.9029 12.9692 78.1294 13.8161 78.4798 16.3276L79.1807 21H83.2691L82.3346 16.0063C81.8089 13.0277 80.3196 12.1808 77.0489 12.1224V10.7206C78.7134 10.633 80.086 10.2826 81.1957 9.64013C82.3346 8.96847 82.8894 7.77116 82.8894 5.98979C82.8894 2.80669 80.3488 0.558075 76.0852 0.558075H66.5651V21ZM70.3615 9.75694V3.82878H75.4135C77.5453 3.82878 78.9471 4.82168 78.9471 6.77826C78.9471 8.76405 77.5453 9.75694 75.4135 9.75694H70.3615Z" fill="black"/>
<path d="M85.7842 10.8082C85.6966 17.3497 90.0478 21.4964 95.2167 21.438C97.144 21.438 98.6042 20.9708 99.6263 20.0071C100.648 19.0434 101.378 17.9629 101.875 16.7364H103.481C102.693 18.1381 102.225 19.7443 102.225 21H105.73V10.6622H95.1582V13.9329H101.933C101.7 16.0355 99.7723 18.1965 96.2095 18.1965C92.53 18.1965 89.7557 15.4515 89.7557 10.8082C89.7557 6.165 92.676 3.39074 96.3264 3.39074C99.3926 3.39074 101.203 5.0261 102.138 7.71275L105.817 6.31102C104.678 2.9235 101.612 0.120034 96.3556 0.120034C90.5442 0.00322288 85.6674 4.82168 85.7842 10.8082Z" fill="black"/>
<path d="M110.141 21H125.151V17.7585H113.937V12.064H122.348V8.85166H113.937V3.82878H125.151V0.558075H110.141V21Z" fill="black"/>
<path d="M134.597 15.4223C135.473 18.8098 138.481 21.438 143.504 21.438C148.907 21.438 151.652 18.7222 151.652 15.101C151.652 11.7135 149.14 9.66933 145.052 8.99767L142.394 8.53043C140.496 8.17999 139.503 7.36232 139.503 5.98979C139.503 4.47124 140.701 3.27393 143.183 3.27393C145.782 3.27393 147.271 4.67566 147.884 6.66145L151.418 5.28892C150.6 2.60227 148.001 0.120034 143.3 0.120034C138.481 0.120034 135.619 2.80669 135.619 6.165C135.619 9.66933 137.751 11.4507 141.606 12.1224L144.205 12.5604C146.658 12.9984 147.709 13.9037 147.709 15.3931C147.709 17.1452 146.337 18.2841 143.562 18.2841C140.555 18.2841 138.802 16.5028 138.189 14.0497L134.597 15.4223Z" fill="black"/>
<path d="M159.389 21H163.185V3.82878H170.398V0.558075H152.293V3.82878H159.389V21Z" fill="black"/>
<path d="M182.588 21H186.793L179.171 0.558075H174.119L166.38 21H170.468L172.25 15.9479H180.835L182.588 21ZM173.418 12.7064L175.141 7.80036C175.637 6.36942 175.842 5.0553 175.871 2.83589H177.302C177.331 4.96769 177.536 6.34022 178.032 7.77116L179.726 12.7064H173.418Z" fill="black"/>
<path d="M189.764 21H193.561V10.5454C193.561 9.11448 193.415 7.91717 193.152 6.95348C192.889 5.96058 192.48 4.93849 191.925 3.91639L193.123 3.15712L204.074 21H208.688V0.558075H204.891V9.58173C204.95 12.5604 205.212 13.4073 206.585 15.6559L205.358 16.4736L195.605 0.558075H189.764V21Z" fill="black"/>
<path d="M214.005 21H217.801V0.558075H214.005V21Z" fill="black"/>
<path d="M223.102 21H237.908V17.6709H226.898V0.558075H223.102V21Z" fill="black"/>
<path d="M254.682 21H258.887L251.265 0.558075H246.213L238.474 21H242.563L244.344 15.9479H252.93L254.682 21ZM245.512 12.7064L247.235 7.80036C247.732 6.36942 247.936 5.0553 247.965 2.83589H249.396C249.425 4.96769 249.63 6.34022 250.126 7.77116L251.82 12.7064H245.512Z" fill="black"/>
<path d="M261.858 21H265.655V10.5454C265.655 9.11448 265.509 7.91717 265.246 6.95348C264.983 5.96058 264.574 4.93849 264.02 3.91639L265.217 3.15712L276.168 21H280.782V0.558075H276.986V9.58173C277.044 12.5604 277.307 13.4073 278.679 15.6559L277.453 16.4736L267.699 0.558075H261.858V21Z" fill="black"/>
<path d="M286.099 21H293.487C299.503 21 303.971 17.0576 303.971 10.6622C304.059 4.52965 299.357 0.49967 293.575 0.558075H286.099V21ZM289.895 17.7585V3.82878H293.4C297.809 3.82878 300.029 6.51544 300.029 10.7206C300.029 15.4223 297.751 17.7585 293.195 17.7585H289.895Z" fill="black"/>
</svg>
